HIERARCHY
ROOT hip
{
	OFFSET 0.000000 0.000000 0.000000 
	CHANNELS 6 Xposition Yposition Zposition Xrotation Zrotation Yrotation
	JOINT abdomen
	{
		OFFSET 0.000000 3.402643 0.000000 
		CHANNELS 3 Xrotation Zrotation Yrotation
		JOINT chest
		{
			OFFSET 0.000000 8.438565 -0.680529 
			CHANNELS 3 Xrotation Zrotation Yrotation
			JOINT neck
			{
				OFFSET 0.000000 10.207942 -0.272212 
				CHANNELS 3 Xrotation Zrotation Yrotation
				JOINT head
				{
					OFFSET 0.000000 3.130431 0.000000 
					CHANNELS 3 Xrotation Zrotation Yrotation
					End Site
					{
						OFFSET 0.000000 3.130435 0.000000 
					}
				}
			}
			JOINT lCollar
			{
				OFFSET 3.470700 6.669187 -0.816635 
				CHANNELS 3 Yrotation Zrotation Xrotation
				JOINT lShldr
				{
					OFFSET 3.198488 0.000000 0.000000 
					CHANNELS 3 Zrotation Yrotation Xrotation
					JOINT lForeArm
					{
						OFFSET 10.139888 0.000000 0.000000 
						CHANNELS 3 Yrotation Zrotation Xrotation
						JOINT lHand
						{
							OFFSET 8.370511 0.000000 0.000000 
							CHANNELS 3 Zrotation Yrotation Xrotation
							End Site
							{
								OFFSET 4.083176 0.000000 0.000000 
							}
						}
					}
				}
			}
			JOINT rCollar
			{
				OFFSET -3.470700 6.669187 -0.816635 
				CHANNELS 3 Yrotation Zrotation Xrotation
				JOINT rShldr
				{
					OFFSET -3.198488 0.000000 0.000000 
					CHANNELS 3 Zrotation Yrotation Xrotation
					JOINT rForeArm
					{
						OFFSET -10.139888 0.000000 0.000000 
						CHANNELS 3 Yrotation Zrotation Xrotation
						JOINT rHand
						{
							OFFSET -8.370511 0.000000 0.000000 
							CHANNELS 3 Zrotation Yrotation Xrotation
							End Site
							{
								OFFSET -4.083176 0.000000 0.000000 
							}
						}
					}
				}
			}
		}
	}
	JOINT lThigh
	{
		OFFSET 5.308129 -1.633274 1.361059 
		CHANNELS 3 Xrotation Zrotation Yrotation
		JOINT lShin
		{
			OFFSET -2.041588 -20.007561 0.000000 
			CHANNELS 3 Xrotation Zrotation Yrotation
			JOINT lFoot
			{
				OFFSET 0.000000 -19.190928 -1.224953 
				CHANNELS 3 Xrotation Yrotation Zrotation
				End Site
				{
					OFFSET 0.000000 -2.449906 4.627600 
				}
			}
		}
	}
	JOINT rThigh
	{
		OFFSET -5.308129 -1.633274 1.361059 
		CHANNELS 3 Xrotation Zrotation Yrotation
		JOINT rShin
		{
			OFFSET 2.041588 -20.007561 0.000000 
			CHANNELS 3 Xrotation Zrotation Yrotation
			JOINT rFoot
			{
				OFFSET 0.000000 -19.190928 -1.224953 
				CHANNELS 3 Xrotation Yrotation Zrotation
				End Site
				{
					OFFSET 0.000000 -2.449906 4.627600 
				}
			}
		}
	}
}
MOTION
Frames: 18
Frame Time: 0.033333
19.660994 48.509171 -1.256518 1.258801 -6.105880 -5.392109 0.000000 0.000000 0.000000 0.501666 1.308525 0.586231 5.950062 -1.171872 -0.136890 13.516683 4.343273 -1.918918 1.618253 -1.952970 1.054995 -65.866203 7.308640 2.921078 -49.392921 -4.266627 31.670822 -6.477690 7.347885 -3.782272 0.848007 4.996446 1.029025 61.619530 -23.122427 3.143208 45.980637 2.321873 7.017141 -5.069793 -5.748663 -3.443777 -2.344415 19.430122 10.987586 19.688307 -1.219330 20.079426 -10.148795 1.483586 -16.100145 -0.089483 -14.387295 -12.248975 1.961950 5.572141 -7.489417 8.123350 0.816358 12.036351 
18.825439 48.358883 -1.219315 1.450012 -5.376089 -5.454225 0.000000 0.000000 0.000000 0.227299 1.259704 0.566699 5.686880 -1.376949 -0.136914 13.619307 4.440824 -1.939129 1.608490 -1.882004 0.801001 -65.581192 5.666358 10.178122 -49.412098 -5.735111 30.760157 -4.664694 7.948709 -3.748579 0.800316 5.040679 0.784152 62.031319 -24.097466 3.697013 44.593723 2.636329 7.151770 -5.227220 -6.042323 -3.419856 -2.012223 19.630430 11.073201 18.911509 -1.064854 20.026985 -9.373101 1.401795 -17.042065 -0.977286 -15.787376 -12.192015 1.571482 4.420265 -11.717232 9.779731 1.000681 12.133937 
17.807833 48.172588 -1.173067 1.696756 -4.637706 -5.388988 0.000000 0.000000 0.000000 -0.154140 1.201113 0.566691 5.319284 -1.591782 -0.244318 13.921143 4.420907 -2.085931 1.579786 -2.106288 0.468975 -65.507866 4.087973 15.396255 -50.300644 -6.536201 30.672058 -4.716127 6.431296 -3.661950 0.850505 4.967607 0.440289 62.576019 -25.010834 3.672784 43.292122 2.859084 6.936312 -5.291917 -6.536759 -3.404042 -1.602107 20.113708 11.353564 17.817968 -0.928091 20.160683 -8.176461 1.317536 -18.161085 -1.445795 -16.980017 -11.850944 0.985582 3.425555 -12.899632 10.537636 1.239320 13.815355 
16.612694 47.941071 -1.059797 1.820607 -3.712543 -5.627441 0.000000 0.000000 0.000000 -0.515026 0.976485 0.722884 4.965028 -1.845699 -0.127202 14.056320 4.401307 -2.115142 1.431185 -2.262217 0.136955 -66.032661 3.091988 17.941223 -51.215450 -6.719632 31.791279 -6.103571 4.224576 -3.544894 1.007019 4.581975 0.107062 63.495411 -25.572865 3.255407 42.122688 3.035365 6.174523 -5.458189 -6.813283 -3.396786 -0.519135 20.392099 11.713492 16.065357 -0.701164 20.334484 -6.772570 1.170733 -19.455988 -1.416434 -18.047382 -11.975505 0.724080 2.986057 -13.587845 10.977416 1.580997 16.295904 
15.135145 47.598289 -0.944045 1.698910 -3.335046 -5.350903 0.000000 0.000000 0.000000 -0.685494 1.025361 0.439558 4.804107 -1.923806 -0.273611 14.058554 4.274703 -2.017039 1.112522 -2.226942 -0.019513 -66.243973 2.475046 19.361458 -51.874329 -6.866044 31.801176 -6.105713 4.076453 -3.549325 0.716066 4.647951 -0.039722 64.133415 -25.846750 2.879639 41.752235 3.113202 5.751099 -5.554036 -7.151741 -3.369857 0.975507 21.568562 12.370408 14.104268 -0.086794 18.288189 -5.676827 1.072637 -21.124607 0.467210 -17.982292 -13.199517 -1.002960 3.938054 -13.878382 8.785668 1.218587 15.880454 
13.415056 47.267986 -0.866173 1.232780 -3.424809 -4.931148 0.000000 0.000000 0.000000 -0.562661 1.220697 0.175949 4.963479 -1.640579 -0.430071 14.095968 4.021257 -1.889027 0.725158 -1.629749 0.088126 -66.906738 2.030507 19.248121 -52.045639 -6.748714 31.415092 -5.389565 4.995789 -3.595295 0.305263 4.707505 0.087593 65.132462 -25.544323 2.820554 41.335297 3.233790 4.974831 -6.111342 -7.406638 -3.352902 3.934567 23.074844 13.989141 9.688203 0.714901 16.769470 -2.903065 0.614128 -22.788759 -2.988900 -18.121965 -12.402453 8.726164 4.955153 -11.358919 1.305474 0.180824 15.684145 
11.598479 46.999622 -0.841054 0.555679 -4.175590 -4.670698 0.000000 0.000000 0.000000 -0.088890 1.953125 -0.029280 5.252963 -1.035119 -0.488378 14.359207 3.611502 -1.800072 0.381931 -1.197771 0.517862 -66.979332 1.636011 17.859905 -52.003658 -6.189838 32.439091 -5.197421 4.879389 -3.587658 -0.078669 5.448731 0.519876 65.606773 -24.788488 2.952376 41.246319 3.396195 4.541423 -5.712705 -7.535777 -3.358708 8.649378 24.644394 17.049059 2.241554 1.593501 16.029949 1.791391 -0.353728 -24.190678 -7.371441 -16.535378 -10.302717 19.896254 4.463588 -11.524857 -5.163019 -0.728061 15.815822 
9.840058 46.940098 -0.903456 -0.169954 -5.928368 -4.585528 0.000000 0.000000 0.000000 0.684785 3.466748 -0.302771 5.613661 0.263667 -0.341793 15.144869 3.611919 -1.575294 0.076376 -0.369527 1.240271 -67.159859 1.212401 15.519913 -51.462021 -5.581966 33.538860 -3.574105 4.649227 -3.555349 -0.485268 7.256610 1.288755 64.773232 -23.086123 3.828887 40.997097 3.718730 4.881824 -5.544661 -7.582304 -3.355051 10.427170 27.175312 20.190910 -0.649379 2.189865 17.757158 6.070634 -1.297853 -23.862848 -7.927814 -13.520173 -9.857738 23.795004 5.467025 -11.256113 -8.477004 -1.075251 13.999169 
8.306078 47.174053 -1.080550 0.446636 -7.320671 -4.568898 0.000000 0.000000 0.000000 0.577425 4.794580 -0.685283 5.449893 1.777321 -0.292828 16.404657 3.827296 -1.193964 -0.181105 0.748462 1.152368 -68.609337 1.381585 12.393184 -50.368790 -5.184728 33.418484 -0.586769 5.247393 -3.535048 -0.683066 9.431379 1.186378 62.981297 -21.285505 4.921560 40.610840 4.237221 4.392878 -5.994646 -8.252028 -3.329752 6.489370 29.172598 19.496891 2.416529 3.868838 24.236816 9.691284 -1.717190 -20.058708 -8.043943 -10.307050 -9.230250 23.390514 6.167617 -11.166990 -9.587959 -1.019794 11.967752 
6.967564 47.400043 -1.320838 1.571963 -6.970129 -4.574934 0.000000 0.000000 0.000000 -0.088005 4.813651 -1.048611 5.251526 2.470606 -0.508182 17.245897 3.730147 -0.753537 -0.809151 1.739729 0.595667 -71.115555 2.642801 9.069692 -50.605602 -4.698977 32.477291 1.675033 7.551800 -3.489521 -0.815030 9.572005 0.613225 62.464401 -19.948673 5.474687 40.590637 4.578341 4.032100 -6.419677 -8.888817 -3.280936 -0.558724 29.309767 15.902322 9.149472 5.020563 31.061155 11.031869 -1.517539 -15.893604 -9.945539 -8.099542 -7.699480 23.773109 5.250532 -13.841653 -9.913040 -0.990106 11.237115 
5.929245 47.603477 -1.447095 1.854224 -5.682359 -4.907107 0.000000 0.000000 0.000000 -0.148439 4.423105 -1.038098 5.292087 2.216703 -0.527705 17.377205 3.964593 -0.645690 -1.122513 2.020817 0.537018 -72.741798 3.557486 7.465359 -51.782101 -4.475933 30.310640 1.040025 9.606552 -3.534095 -0.853837 7.834272 0.531686 63.502235 -18.570364 5.215490 41.203918 4.476440 4.163015 -6.304627 -9.979154 -3.244051 -2.178927 27.278740 14.586598 10.284451 4.122381 29.258383 8.860114 -1.199145 -15.839839 -11.000975 -7.661704 -7.317456 24.423132 4.970593 -14.825277 -10.402283 -0.969386 10.159302 
5.110150 47.750153 -1.460317 1.311821 -4.259206 -5.288568 0.000000 0.000000 0.000000 0.384501 3.925397 -0.802245 5.505133 1.972617 -0.361450 17.250294 4.423495 -0.704796 -1.091049 2.061244 1.006086 -72.741119 3.468493 8.235833 -52.963211 -4.512229 29.613989 -2.071934 9.138489 -3.675659 -0.698926 7.020166 1.002887 63.625813 -17.490097 4.645981 42.765377 4.195748 3.346470 -6.730039 -10.037916 -3.213495 1.335602 23.595694 14.070603 5.191758 3.663319 24.113810 6.876125 -1.134297 -18.568304 -11.003047 -7.907604 -7.330076 25.154633 4.716236 -14.629950 -11.225123 -0.934580 9.222568 
4.430907 47.834618 -1.435759 0.431615 -2.800849 -5.221481 0.000000 0.000000 0.000000 1.090578 3.437241 -0.704202 6.036130 1.611304 -0.312376 16.476210 4.921281 -0.891260 -1.096202 1.785934 1.631304 -71.670540 2.709453 10.385536 -53.838844 -4.637230 30.934839 -3.967647 7.069893 -3.683168 -0.695506 6.936239 1.632728 62.696171 -16.449217 4.409346 44.422134 3.923067 2.197422 -8.184270 -9.335930 -3.167186 -1.318745 20.242981 10.620844 9.446008 4.316837 27.239967 5.306180 -0.865249 -18.724558 -10.574142 -8.367141 -7.152556 26.091656 4.081267 -14.016797 -12.228074 -0.967240 8.870543 
3.862471 47.948261 -1.384640 0.080812 -1.847786 -5.217793 0.000000 0.000000 0.000000 1.325205 3.495945 -0.528149 6.323071 1.347647 -0.214784 15.914564 4.813590 -1.087536 -0.810509 1.517912 1.826394 -70.579018 1.677782 12.902997 -53.931068 -4.877537 31.819710 -3.799771 5.144258 -3.585908 -0.662486 7.179673 1.859218 61.270145 -15.644095 4.516381 45.649857 3.700188 1.659342 -8.938231 -8.476051 -3.175867 -4.988932 17.667107 8.154190 15.061834 3.797378 29.638346 2.707769 -0.400864 -17.679192 -10.233947 -8.700706 -7.470291 26.210445 4.218699 -13.782727 -12.742771 -0.943031 8.109721 
3.357377 48.066906 -1.322584 0.303209 -1.244451 -5.401870 0.000000 0.000000 0.000000 1.046946 3.798788 -0.263740 6.294951 1.279283 0.263824 16.095922 4.491547 -0.969181 -0.446490 1.326209 1.562716 -70.120850 1.304826 14.194265 -54.090923 -4.906602 32.282005 -3.518783 4.877884 -3.554317 -0.345539 7.561743 1.585565 59.749580 -15.231496 4.786235 46.529587 3.551202 1.800766 -9.361918 -8.968545 -3.130097 -6.159781 15.245651 6.971478 15.964298 3.200663 31.442080 1.560947 -0.239954 -17.567480 -10.301238 -8.475017 -7.327886 25.881947 4.108174 -14.085311 -12.895282 -0.870356 7.571841 
2.899786 48.154659 -1.253030 0.412168 -0.631866 -5.478935 0.000000 0.000000 0.000000 0.787656 3.935546 -0.048713 6.351741 1.249923 0.635041 16.320915 3.954682 -0.811984 -0.490555 1.356182 1.328401 -70.789352 1.635029 13.684491 -54.188931 -4.773484 32.290852 -3.422951 5.059138 -3.565274 0.016185 7.795384 1.320340 58.367661 -15.106029 5.222971 47.074589 3.531797 1.576490 -9.536493 -9.109895 -3.118427 -7.617114 12.889932 6.048864 17.192041 3.173005 38.807877 2.425641 -0.334534 -16.578041 -10.290618 -8.317921 -7.125837 25.724926 3.873653 -14.255151 -13.173203 -0.850799 7.205056 
2.418487 48.292526 -1.183933 0.126953 0.000000 -5.351564 0.000000 0.000000 0.000000 0.900802 3.740215 0.186426 6.406993 1.025190 1.133155 16.762573 4.032963 -0.626200 -0.045245 1.434867 1.416305 -72.250404 1.621504 12.708677 -53.918007 -4.762843 31.818235 -3.088601 5.791847 -3.599326 0.057612 7.454927 1.437798 57.809029 -14.437225 5.521210 46.593407 3.558455 1.342423 -9.527945 -8.677286 -3.147727 -8.055507 11.335930 6.153569 17.223923 2.373595 43.049534 2.810389 -0.342041 -14.772787 -9.603484 -8.255290 -7.227761 25.108360 3.814387 -14.499901 -13.273673 -0.810879 6.670319 
1.918940 48.357380 -1.071143 -0.194104 0.437820 -4.941485 0.000000 0.000000 0.000000 0.949273 3.505793 0.352696 6.516776 0.829769 1.562760 16.723011 4.335799 -0.459886 0.229097 1.373403 1.445586 -72.864296 1.680254 12.236049 -54.013855 -4.726889 31.548695 -3.678782 6.353887 -3.634413 0.032221 7.386140 1.495907 57.473049 -14.253684 5.477180 46.381393 3.518219 1.044757 -9.751310 -8.573892 -3.134773 -8.025235 10.670222 6.628361 17.471653 1.320992 42.258312 1.780532 -0.193083 -13.746460 -9.008630 -8.099680 -7.350081 25.014553 3.835552 -14.961157 -13.673762 -0.763152 6.275036 
